<svg width="16" height="16" fill="#222" xmlns="http://www.w3.org/2000/svg"><path d="M4 1C2.5 1 1 2.5 1 4v8c0 1.5 1.5 3 3 3h6v-.5c0-.5.5-1 1-1-.325 0-.648-.214-.836-.5H3.98c-.481 0-.96-.5-.96-1.031L3 4c-.001-.5.5-1 1-1h8c.5 0 1 .5 1 1v6.164c.286.188.5.51.5.836 0-.5.5-1 1-1h.5V4c0-1.5-1.5-3-3-3H4zm5 3c-.5 0-1 .5-1 1v6c0 .5.5 1 1 1h1v-1c0-.5.5-1 1-1h1V5c0-.5-.5-1-1-1H9z" fill-opacity=".349"/><path d="M11 11h1.375l1.125 1.094L14.594 11H16v1.469l-1.094 1.062L16 14.594V16h-1.438L13.5 14.937 12.437 16H11v-1.406l1.063-1.063L11 12.47zm0 0"/></svg>